<svg width="20" height="20" viewBox="0 0 20 20" fill="none" xmlns="http://www.w3.org/2000/svg">
<path d="M16.6667 3.33325H3.33334C2.41286 3.33325 1.66667 4.07944 1.66667 4.99992V5.83325C1.66667 6.75373 2.41286 7.49992 3.33334 7.49992H16.6667C17.5871 7.49992 18.3333 6.75373 18.3333 5.83325V4.99992C18.3333 4.07944 17.5871 3.33325 16.6667 3.33325Z" stroke="white" stroke-width="2" stroke-linecap="round" stroke-linejoin="round"/>
<path d="M3.33333 7.5V15C3.33333 15.442 3.50892 15.866 3.82148 16.1785C4.13404 16.4911 4.55797 16.6667 4.99999 16.6667H15C15.442 16.6667 15.8659 16.4911 16.1785 16.1785C16.4911 15.866 16.6667 15.442 16.6667 15V7.5" stroke="white" stroke-width="2" stroke-linecap="round" stroke-linejoin="round"/>
<path d="M8.33333 10.8333H11.6667" stroke="white" stroke-width="2" stroke-linecap="round" stroke-linejoin="round"/>
</svg>
