<svg width="30" height="30" viewBox="0 0 30 30" fill="none" xmlns="http://www.w3.org/2000/svg">
<g opacity="0.4">
<rect x="0.5" y="0.5" width="29" height="29" rx="14.5" stroke="white"/>
<path d="M15 15.8334C15.4602 15.8334 15.8333 15.4603 15.8333 15.0001C15.8333 14.5398 15.4602 14.1667 15 14.1667C14.5397 14.1667 14.1666 14.5398 14.1666 15.0001C14.1666 15.4603 14.5397 15.8334 15 15.8334Z" stroke="white" stroke-width="2" stroke-linecap="round" stroke-linejoin="round"/>
<path d="M20.8333 15.8334C21.2936 15.8334 21.6667 15.4603 21.6667 15.0001C21.6667 14.5398 21.2936 14.1667 20.8333 14.1667C20.3731 14.1667 20 14.5398 20 15.0001C20 15.4603 20.3731 15.8334 20.8333 15.8334Z" stroke="white" stroke-width="2" stroke-linecap="round" stroke-linejoin="round"/>
<path d="M9.16671 15.8334C9.62694 15.8334 10 15.4603 10 15.0001C10 14.5398 9.62694 14.1667 9.16671 14.1667C8.70647 14.1667 8.33337 14.5398 8.33337 15.0001C8.33337 15.4603 8.70647 15.8334 9.16671 15.8334Z" stroke="white" stroke-width="2" stroke-linecap="round" stroke-linejoin="round"/>
</g>
</svg>
