<svg width="80" height="81" viewBox="0 0 80 81" fill="none" xmlns="http://www.w3.org/2000/svg">
<path d="M10 10.5V27.1667H26.6667" stroke="white" stroke-width="2" stroke-linecap="round" stroke-linejoin="round"/>
<path d="M10.1667 43.8332C10.905 50.5193 13.869 56.7632 18.5826 61.5622C23.2962 66.3612 29.4859 69.4368 36.1576 70.2951C42.8294 71.1534 49.5959 69.7445 55.3707 66.2948C61.1455 62.845 65.5933 57.5546 67.9998 51.2731C70.4064 44.9916 70.632 38.0836 68.6405 31.6585C66.6489 25.2333 62.5558 19.6639 57.0185 15.8447C51.4812 12.0255 44.8209 10.1781 38.1074 10.5991C31.3939 11.0202 25.0167 13.6854 20 18.1666L10 27.1666" stroke="white" stroke-width="2" stroke-linecap="round" stroke-linejoin="round"/>
<path d="M40 23.8333V40.4999L53.3333 47.1666" stroke="white" stroke-width="2" stroke-linecap="round" stroke-linejoin="round"/>
</svg>
